<svg xmlns="http://www.w3.org/2000/svg" viewBox="0 0 360 1200" width="360" height="1200">
  <rect width="100%" height="100%" fill="#f5f5f8"/>
  <rect x="12" y="12" width="336" height="28" fill="#fff" stroke="#d0d0dc"/>
  <rect x="50" y="52" width="260" height="8" rx="2" fill="#e2e2ea"/>
  <rect x="70" y="66" width="220" height="8" rx="2" fill="#e2e2ea"/>
  <rect x="130" y="82" width="100" height="18" rx="9" fill="#050517"/>
  <rect x="12" y="112" width="100" height="90" fill="#050517"/>
  <rect x="120" y="112" width="100" height="90" fill="#fff" stroke="#d0d0dc"/>
  <rect x="228" y="112" width="100" height="90" fill="#9c6cfc" opacity="0.35"/>
  <rect x="40" y="214" width="280" height="8" rx="2" fill="#e2e2ea"/>
  <rect x="12" y="230" width="336" height="100" fill="#d8d8e4"/>
  <rect x="24" y="290" width="120" height="60" fill="#9c6cfc" opacity="0.4"/>
  <rect x="220" y="280" width="110" height="70" fill="#050517" opacity="0.85"/>
  <rect x="12" y="342" width="155" height="40" fill="#fff" stroke="#d0d0dc"/>
  <rect x="177" y="342" width="155" height="40" fill="#fff" stroke="#d0d0dc"/>
  <rect x="12" y="392" width="155" height="40" fill="#fff" stroke="#d0d0dc"/>
  <rect x="177" y="392" width="155" height="40" fill="#fff" stroke="#d0d0dc"/>
  <rect x="12" y="450" width="336" height="100" fill="#050517"/>
  <rect x="200" y="470" width="80" height="60" fill="#c1ff72" opacity="0.5" transform="rotate(8 240 500)"/>
  <rect x="250" y="480" width="70" height="55" fill="#9c6cfc" opacity="0.5" transform="rotate(-6 285 505)"/>
  <rect x="30" y="562" width="200" height="8" rx="2" fill="#e2e2ea"/>
  <rect x="12" y="578" width="160" height="180" fill="#ececf2"/>
  <rect x="185" y="578" width="163" height="180" fill="#fff" stroke="#d0d0dc"/>
  <rect x="195" y="594" width="120" height="6" rx="2" fill="#e2e2ea"/>
  <rect x="195" y="608" width="100" height="6" rx="2" fill="#e2e2ea"/>
  <rect x="195" y="622" width="80" height="6" rx="2" fill="#e2e2ea"/>
  <rect x="12" y="770" width="336" height="70" fill="#fff" stroke="#d0d0dc"/>
  <rect x="24" y="790" width="200" height="8" fill="#e2e2ea"/>
  <rect x="24" y="806" width="280" height="6" fill="#f0f0f5"/>
  <rect x="12" y="852" width="336" height="90" fill="#050517"/>
</svg>
