<svg xmlns="http://www.w3.org/2000/svg" viewBox="0 0 360 1400" width="360" height="1400">
  <rect width="100%" height="100%" fill="#f5f5f8"/>
  <rect x="12" y="12" width="336" height="28" fill="#fff" stroke="#d0d0dc"/>
  <rect x="20" y="20" width="48" height="8" fill="#d0d0dc"/>
  <rect x="200" y="18" width="80" height="6" fill="#e2e2ea"/>
  <rect x="300" y="16" width="40" height="12" rx="6" fill="#050517"/>
  <rect x="40" y="52" width="280" height="8" rx="2" fill="#e2e2ea"/>
  <rect x="60" y="66" width="240" height="8" rx="2" fill="#e2e2ea"/>
  <rect x="80" y="80" width="200" height="8" rx="2" fill="#e2e2ea"/>
  <rect x="130" y="96" width="100" height="18" rx="9" fill="#9c6cfc"/>
  <rect x="20" y="128" width="58" height="110" rx="6" fill="#fff" stroke="#d0d0dc"/>
  <rect x="28" y="140" width="42" height="70" rx="4" fill="#ececf2"/>
  <rect x="84" y="128" width="58" height="110" rx="6" fill="#fff" stroke="#d0d0dc"/>
  <rect x="92" y="140" width="42" height="70" rx="4" fill="#ececf2"/>
  <rect x="148" y="128" width="58" height="110" rx="6" fill="#fff" stroke="#d0d0dc"/>
  <rect x="156" y="140" width="42" height="70" rx="4" fill="#ececf2"/>
  <rect x="212" y="128" width="58" height="110" rx="6" fill="#fff" stroke="#d0d0dc"/>
  <rect x="220" y="140" width="42" height="70" rx="4" fill="#ececf2"/>
  <rect x="276" y="128" width="58" height="110" rx="6" fill="#fff" stroke="#d0d0dc"/>
  <rect x="284" y="140" width="42" height="70" rx="4" fill="#ececf2"/>
  <rect x="50" y="254" width="260" height="6" rx="2" fill="#e2e2ea"/>
  <rect x="30" y="272" width="44" height="16" fill="#f0f0f5"/>
  <rect x="88" y="272" width="44" height="16" fill="#f0f0f5"/>
  <rect x="146" y="272" width="44" height="16" fill="#f0f0f5"/>
  <rect x="204" y="272" width="44" height="16" fill="#f0f0f5"/>
  <rect x="262" y="272" width="44" height="16" fill="#f0f0f5"/>
  <rect x="12" y="300" width="150" height="120" fill="#fff" stroke="#d0d0dc"/>
  <rect x="20" y="310" width="134" height="100" fill="#ececf2"/>
  <rect x="178" y="300" width="170" height="120" fill="#fff" stroke="#d0d0dc"/>
  <rect x="190" y="316" width="140" height="6" rx="2" fill="#e2e2ea"/>
  <rect x="190" y="330" width="120" height="6" rx="2" fill="#e2e2ea"/>
  <rect x="190" y="344" width="100" height="6" rx="2" fill="#e2e2ea"/>
  <rect x="12" y="432" width="336" height="24" fill="#ececf2"/>
  <rect x="120" y="468" width="120" height="6" rx="2" fill="#e2e2ea"/>
  <rect x="12" y="484" width="100" height="80" rx="4" fill="#050517"/>
  <rect x="120" y="484" width="100" height="80" rx="4" fill="#fff" stroke="#d0d0dc"/>
  <rect x="228" y="484" width="100" height="80" rx="4" fill="#fff" stroke="#d0d0dc"/>
  <rect x="20" y="580" width="80" height="6" rx="2" fill="#e2e2ea"/>
  <rect x="12" y="596" width="100" height="70" fill="#050517" opacity="0.85"/>
  <rect x="120" y="596" width="100" height="50" fill="#f0c0f0"/>
  <rect x="228" y="596" width="100" height="90" fill="#ececf2"/>
  <rect x="12" y="696" width="160" height="60" fill="#e4fc60" opacity="0.6"/>
  <rect x="180" y="696" width="148" height="60" fill="#fff" stroke="#d0d0dc"/>
  <rect x="20" y="772" width="100" height="6" rx="2" fill="#e2e2ea"/>
  <rect x="12" y="788" width="90" height="100" fill="#ececf2"/>
  <rect x="110" y="788" width="140" height="100" fill="#d8d8e4"/>
  <rect x="258" y="788" width="90" height="100" fill="#ececf2"/>
  <rect x="12" y="900" width="130" height="100" fill="#fff" stroke="#d0d0dc"/>
  <rect x="20" y="912" width="100" height="6" rx="2" fill="#e2e2ea"/>
  <rect x="20" y="926" width="80" height="6" rx="2" fill="#e2e2ea"/>
  <rect x="155" y="900" width="193" height="100" fill="#fff" stroke="#d0d0dc"/>
  <rect x="165" y="912" width="170" height="14" fill="#f3f3f8"/>
  <rect x="165" y="934" width="170" height="14" fill="#f3f3f8"/>
  <rect x="165" y="956" width="170" height="14" fill="#f3f3f8"/>
  <rect x="165" y="978" width="170" height="14" fill="#f3f3f8"/>
  <rect x="12" y="1012" width="336" height="80" fill="#050517"/>
  <rect x="30" y="1032" width="200" height="10" fill="#9c6cfc" opacity="0.5"/>
  <rect x="30" y="1052" width="120" height="8" fill="#fff" opacity="0.3"/>
</svg>
