<svg xmlns="http://www.w3.org/2000/svg" viewBox="0 0 360 900" width="360" height="900">
  <rect width="100%" height="100%" fill="#f5f5f8"/>
  <rect x="12" y="12" width="336" height="28" fill="#fff" stroke="#d0d0dc"/>
  <rect x="12" y="52" width="160" height="80" fill="#fff" stroke="#d0d0dc"/>
  <rect x="24" y="64" width="120" height="8" fill="#e2e2ea"/>
  <rect x="24" y="80" width="90" height="6" fill="#f0f0f5"/>
  <rect x="185" y="52" width="163" height="80" fill="#ececf2"/>
  <rect x="12" y="144" width="100" height="90" fill="#050517"/>
  <rect x="120" y="144" width="100" height="90" fill="#fff" stroke="#d0d0dc"/>
  <rect x="228" y="144" width="100" height="90" fill="#fff" stroke="#d0d0dc"/>
  <rect x="80" y="246" width="200" height="8" fill="#e2e2ea"/>
  <rect x="12" y="266" width="160" height="60" fill="#fff" stroke="#d0d0dc"/>
  <rect x="184" y="266" width="160" height="60" fill="#fff" stroke="#d0d0dc"/>
  <rect x="12" y="336" width="160" height="60" fill="#fff" stroke="#d0d0dc"/>
  <rect x="184" y="336" width="160" height="60" fill="#fff" stroke="#d0d0dc"/>
  <rect x="12" y="406" width="336" height="50" fill="#f3f3f8"/>
  <rect x="140" y="422" width="80" height="18" rx="9" fill="#9c6cfc"/>
  <rect x="12" y="468" width="336" height="80" fill="#050517"/>
</svg>
